<svg xmlns="http://www.w3.org/2000/svg" viewBox="0 0 1080 1080"><defs><style>.cls-1{fill:#1a1a1a;}.cls-2{fill:#ffbfb3;}</style></defs><title>Artboard 2</title><g id="Layer_2" data-name="Layer 2"><rect class="cls-1" width="1080" height="1080"/><path class="cls-2" d="M294.34,486.64a46.39,46.39,0,0,0-12,22.15c-.77,3.71-2.53,12.09,1.2,20.35.62,1.37,5.05,11.19,13.77,13.77,1.47.43,1.68.22,9.57,1.79,1.34.27,3,.63,3.92,2s.5,3.4.35,4.13c-1.26,6.1,3.46,12.36,4.48,13.78,2.59,3.6,6.2,5.74,9.3,7.57,3.61,2.15,6,2.8,7.23,5.52,1,2.29-.15,3.06,1,5.51,1.32,2.73,3.25,2.76,5.17,5.85a15.38,15.38,0,0,1,1.72,4.48c2.22,7.7,3.13,7.82,4.48,13.09,1.56,6.1.23,5.5,1.72,11.71,1.08,4.5,2.29,9.27,6.2,13.43,1.59,1.69,3.74,3.91,7.23,4.48.59.1,4.74.71,7.58-1.72,2.65-2.27,2.64-5.87,2.76-11.37.16-7.76.34-15.94,1-21,.64-4.62,1.85-7.71,6.2-17.22,9.39-20.51,14.08-30.76,16.88-34.45,9.38-12.35,20.22-18.93,27.21-23.07,9-5.35,15.59-7.5,31.34-12.75,50.1-16.67,47.33-16.14,50.64-16.88,25.24-5.62,45.56-5.2,59.93-4.82,16.09.43,31.57.85,51,6.2,11.82,3.26,32.67,9.22,54.08,26.18,7.73,6.13,23.61,19,34.78,41.33a154.5,154.5,0,0,1,13.09,48.23c2.06,19.76,3.09,29.65,2.41,32-.23.83-1.24,4.07.35,6.54,1,1.48,2.74,2,6.2,3.1,2.64.85,3.95,1.27,5.17,1,2.51-.5,4-2.87,5.85-6.2,4.38-7.87,4.23-9.32,6.2-12.4s5.69-5.65,13.09-10.68c9-6.17,10-5.84,13.43-8.61,6.25-5,9.06-10.57,13.09-18.6,6.06-12.07,8.29-22.54,10.68-34.1.69-3.33,2-9.93,3.1-19.29,2.91-24.07,4.45-36.81.69-52.7a100.1,100.1,0,0,0-14.81-32.72c-4.63-6.7-9-13-17-18.5-5-3.46-6.92-3.5-12.66-8a64.33,64.33,0,0,1-13.35-14.09c-1.85-2.7-3.36-5.39-6.63-12.77-8.31-18.73-7.4-21.23-11.58-27.87-3.85-6.12-8.66-9.73-18.27-17a133.75,133.75,0,0,0-30.72-18c-17.12-7-31.47-8.36-45.29-9.53-16.52-1.41-15.76.49-35.48-.27-35.18-1.35-42.66-7.59-66.21-5.29-6,.58-9.61,1.39-25.95,3.17-11.21,1.23-13.2,1.25-17.48,2.65s-9.63,4.46-20.39,10.59c-7,4-7.85,4.72-8.73,5.83-4.66,5.85-1.94,11.17-5.83,16.95-1.21,1.79-2.82,3.29-13.24,7.68-10.78,4.54-16.39,6.9-25.95,9.27-13.2,3.26-13,1.35-23.84,4-11.35,2.74-29.39,7.11-36.81,20.39a120.57,120.57,0,0,0-5.82,13.77c-4.15,11.07-4.24,12.71-4.24,12.71-1,3.37-1.43,5.37-3.18,7.68a17.42,17.42,0,0,1-6.35,5c-6.15,3.18-9.75,2.57-14.57,4-7.42,2.16-15.21,8.35-18,16.68A24.5,24.5,0,0,0,294.34,486.64Z"/><path class="cls-2" d="M639.54,707.15a69.39,69.39,0,0,1-24.89-4.53c-18.13-6.92-33.1-21.29-42.15-40.48s-11.32-41.95-6.17-63.69l1.86-7.88,123.27,2.9-.47,20L584.33,611c-4.23,31.91,11.25,63,37.44,73,27.64,10.54,54.74-7.68,57.74-9.8L691,690.5C688,692.61,666.39,707.15,639.54,707.15Z"/><circle class="cls-2" cx="691.23" cy="603.43" r="10.05"/><circle class="cls-2" cx="684.93" cy="682.6" r="10.03"/><path class="cls-2" d="M440.46,707.15c-26.85,0-48.48-14.54-51.48-16.65l11.51-16.36c3,2.12,30.1,20.33,57.74,9.8,26.19-10,41.67-41.08,37.44-73L389,613.46l-.47-20,123.27-2.9,1.86,7.88c5.15,21.74,3,44.36-6.17,63.69s-24,33.56-42.15,40.48A69.39,69.39,0,0,1,440.46,707.15Z"/><circle class="cls-2" cx="388.77" cy="603.43" r="10.05"/><circle class="cls-2" cx="395.07" cy="682.6" r="10.03"/><rect class="cls-2" x="506.41" y="622.4" width="67.18" height="20"/></g></svg>