<svg xmlns="http://www.w3.org/2000/svg" viewBox="0 0 1080 1080"><defs><style>.cls-1{fill:#1a1a1a;}.cls-2{fill:#f8f8f8;}</style></defs><title>Artboard 3</title><g id="Layer_2" data-name="Layer 2"><rect class="cls-1" x="-1.43" y="1.43" width="1080" height="1080"/><path class="cls-2" d="M307.75,486.64a46.31,46.31,0,0,0-12,22.15c-.77,3.71-2.54,12.09,1.19,20.35.62,1.37,5,11.19,13.77,13.77,1.47.43,1.68.22,9.58,1.79,1.34.27,3,.63,3.92,2s.49,3.4.34,4.13c-1.25,6.1,3.46,12.36,4.48,13.78,2.59,3.6,6.21,5.74,9.3,7.57,3.62,2.15,6,2.8,7.23,5.52,1,2.29-.14,3.06,1,5.51,1.31,2.73,3.24,2.76,5.16,5.85a15.68,15.68,0,0,1,1.73,4.48c2.21,7.7,3.12,7.82,4.47,13.09,1.57,6.1.23,5.5,1.73,11.71,1.08,4.5,2.28,9.27,6.2,13.43,1.58,1.69,3.74,3.91,7.23,4.48.59.1,4.73.71,7.58-1.72,2.65-2.27,2.64-5.87,2.75-11.37.17-7.76.34-15.94,1-21,.63-4.62,1.84-7.71,6.2-17.22,9.38-20.51,14.07-30.76,16.87-34.45,9.39-12.35,20.23-18.93,27.21-23.07,9-5.35,15.59-7.5,31.35-12.75,50.1-16.67,47.33-16.14,50.63-16.88,25.25-5.62,45.56-5.2,59.94-4.82,16.09.43,31.57.85,51,6.2,11.82,3.26,32.67,9.22,54.08,26.18,7.74,6.13,23.62,19,34.79,41.33a154.5,154.5,0,0,1,13.09,48.23c2.06,19.76,3.09,29.65,2.41,32-.24.83-1.24,4.07.34,6.54,1,1.48,2.75,2,6.2,3.1,2.64.85,4,1.27,5.17,1,2.51-.5,4-2.87,5.86-6.2,4.37-7.87,4.23-9.32,6.2-12.4s5.69-5.65,13.08-10.68c9.06-6.17,10-5.84,13.44-8.61,6.25-5,9.06-10.57,13.09-18.6,6-12.07,8.29-22.54,10.67-34.1.69-3.33,2-9.93,3.1-19.29,2.91-24.07,4.45-36.81.69-52.7a99.64,99.64,0,0,0-14.81-32.72c-4.63-6.7-9-13-17-18.5-5-3.46-6.93-3.5-12.67-8a64.6,64.6,0,0,1-13.35-14.09c-1.85-2.7-3.35-5.39-6.63-12.77-8.31-18.73-7.4-21.23-11.58-27.87-3.84-6.12-8.65-9.73-18.27-17a133.52,133.52,0,0,0-30.72-18c-17.11-7-31.46-8.36-45.28-9.53-16.53-1.41-15.76.49-35.49-.27C569,334.93,561.49,328.69,538,331c-6,.58-9.62,1.39-26,3.17-11.22,1.23-13.2,1.25-17.48,2.65s-9.63,4.46-20.39,10.59c-7.05,4-7.86,4.72-8.74,5.83-4.66,5.85-1.94,11.17-5.83,16.95-1.2,1.79-2.82,3.29-13.24,7.68-10.78,4.54-16.39,6.9-25.95,9.27-13.19,3.26-13,1.35-23.83,4-11.35,2.74-29.4,7.11-36.81,20.39a118.86,118.86,0,0,0-5.83,13.77c-4.15,11.07-4.24,12.71-4.24,12.71-1,3.37-1.43,5.37-3.17,7.68a17.56,17.56,0,0,1-6.36,5c-6.15,3.18-9.74,2.57-14.56,4-7.43,2.16-15.21,8.35-18,16.68A24.35,24.35,0,0,0,307.75,486.64Z"/><path class="cls-2" d="M652.94,707.15a69.46,69.46,0,0,1-24.89-4.53c-18.13-6.92-33.1-21.29-42.15-40.48s-11.31-41.95-6.17-63.69l1.87-7.88,123.27,2.9-.48,20L597.74,611c-4.24,31.91,11.25,63,37.44,73,27.64,10.54,54.73-7.68,57.73-9.8l11.52,16.36C701.43,692.61,679.79,707.15,652.94,707.15Z"/><circle class="cls-2" cx="704.63" cy="603.43" r="10.05"/><circle class="cls-2" cx="698.34" cy="682.6" r="10.03"/><path class="cls-2" d="M453.87,707.15c-26.86,0-48.49-14.54-51.49-16.65l11.52-16.36c3,2.12,30.1,20.33,57.73,9.8,26.19-10,41.67-41.08,37.44-73l-106.66,2.51-.47-20,123.27-2.9,1.87,7.88c5.14,21.74,2.95,44.36-6.17,63.69s-24,33.56-42.15,40.48A69.43,69.43,0,0,1,453.87,707.15Z"/><circle class="cls-2" cx="402.18" cy="603.43" r="10.05"/><circle class="cls-2" cx="408.47" cy="682.6" r="10.03"/><rect class="cls-2" x="519.82" y="622.4" width="67.18" height="20"/></g></svg>