<svg xmlns="http://www.w3.org/2000/svg" viewBox="0 0 1080 1080"><defs><style>.cls-1{fill:#ffbfb3;}.cls-2{fill:#1a1a1a;}.cls-3{fill:none;stroke:#1a1a1a;stroke-miterlimit:10;stroke-width:20px;}</style></defs><title>Artboard 1</title><g id="Layer_2" data-name="Layer 2"><rect class="cls-1" width="1080" height="1080"/><path class="cls-2" d="M302.6,491.63a46.39,46.39,0,0,0-12,22.15c-.77,3.71-2.53,12.09,1.2,20.35.62,1.37,5.05,11.19,13.77,13.77,1.47.43,1.67.22,9.57,1.79,1.34.27,3,.63,3.92,2s.5,3.4.35,4.13c-1.26,6.1,3.46,12.36,4.48,13.78,2.59,3.6,6.2,5.74,9.3,7.57,3.61,2.15,6,2.8,7.23,5.52,1,2.29-.15,3.06,1,5.51,1.32,2.73,3.25,2.76,5.17,5.85a15.38,15.38,0,0,1,1.72,4.48c2.22,7.7,3.13,7.82,4.48,13.09,1.56,6.1.23,5.5,1.72,11.71,1.08,4.5,2.29,9.27,6.2,13.43,1.59,1.69,3.74,3.91,7.23,4.48.59.1,4.74.71,7.58-1.72,2.65-2.27,2.64-5.87,2.76-11.37.16-7.76.34-15.94,1-21,.63-4.62,1.85-7.71,6.2-17.22,9.39-20.51,14.08-30.76,16.88-34.45,9.38-12.35,20.22-18.93,27.21-23.07,9-5.35,15.58-7.5,31.34-12.75,50.1-16.67,47.33-16.14,50.64-16.88,25.24-5.62,45.56-5.2,59.93-4.82,16.09.43,31.57.85,51,6.2,11.82,3.26,32.67,9.22,54.08,26.18,7.73,6.13,23.61,19,34.78,41.33a154.61,154.61,0,0,1,13.09,48.23c2.06,19.76,3.09,29.65,2.41,32-.23.83-1.24,4.07.35,6.54,1,1.48,2.74,2,6.2,3.1,2.64.85,3.95,1.27,5.17,1,2.51-.5,4-2.87,5.85-6.2,4.37-7.87,4.23-9.32,6.2-12.4s5.69-5.65,13.09-10.68c9.05-6.17,10-5.84,13.43-8.61,6.25-5,9.06-10.57,13.09-18.6C796.35,594,798.58,583.56,801,572c.69-3.33,2-9.93,3.1-19.29,2.91-24.07,4.45-36.81.69-52.7A100.1,100.1,0,0,0,790,467.29c-4.63-6.7-9-13-17-18.5-5-3.46-6.92-3.5-12.66-8A64.33,64.33,0,0,1,747,426.67c-1.85-2.7-3.36-5.39-6.63-12.77C732,395.17,733,392.67,728.77,386c-3.85-6.12-8.66-9.73-18.27-16.95a133.75,133.75,0,0,0-30.72-18c-17.12-7-31.47-8.36-45.29-9.53-16.52-1.41-15.76.49-35.48-.27-35.18-1.35-42.66-7.59-66.21-5.29-6,.58-9.61,1.39-25.95,3.17-11.21,1.23-13.2,1.25-17.48,2.65s-9.63,4.46-20.39,10.59c-7,4-7.85,4.72-8.74,5.83-4.65,5.85-1.93,11.17-5.82,16.95-1.21,1.79-2.82,3.29-13.24,7.68-10.78,4.54-16.39,6.9-25.95,9.27-13.2,3.26-13,1.35-23.84,4C380,398.83,362,403.2,354.58,416.48a119.54,119.54,0,0,0-5.82,13.77c-4.15,11.07-4.24,12.71-4.24,12.71-1,3.37-1.43,5.37-3.18,7.68a17.42,17.42,0,0,1-6.35,5c-6.16,3.18-9.75,2.57-14.57,4-7.42,2.16-15.21,8.35-18,16.68A24.42,24.42,0,0,0,302.6,491.63Z"/><path class="cls-3" d="M699.49,608.46l-115.17-2.71c-9.73,41.11,10.29,80.36,42.15,92.52,32.74,12.49,64.15-8.91,67-11"/><circle class="cls-2" cx="699.49" cy="608.42" r="10.05"/><circle class="cls-2" cx="693.19" cy="687.59" r="10.03"/><path class="cls-3" d="M397,608.46l115.17-2.71c9.73,41.11-10.29,80.36-42.15,92.52-32.74,12.49-64.15-8.91-67.05-11"/><circle class="cls-2" cx="397.03" cy="608.42" r="10.05"/><circle class="cls-2" cx="403.33" cy="687.59" r="10.03"/><line class="cls-3" x1="514.67" y1="637.39" x2="581.85" y2="637.39"/></g></svg>